<svg width="20" height="21" viewBox="0 0 20 21" fill="none" xmlns="http://www.w3.org/2000/svg">
<path d="M11.0275 0.799927C12.1529 0.801787 12.7233 0.807737 13.2161 0.822408L13.4102 0.828758C13.6344 0.836728 13.8556 0.846729 14.1223 0.859229C15.1864 0.908391 15.9124 1.07674 16.5499 1.32424C17.209 1.57841 17.7657 1.92177 18.3215 2.47761C18.8766 3.03346 19.22 3.59182 19.475 4.24934C19.7216 4.88603 19.89 5.61272 19.94 6.67693C19.9519 6.9436 19.9615 7.1648 19.9694 7.38906L19.9757 7.58315C19.9903 8.07591 19.997 8.64631 19.9991 9.77175L19.9999 10.5175C20 10.6086 20 10.7026 20 10.7996L19.9999 11.0817L19.9993 11.8274C19.9974 12.9529 19.9915 13.5232 19.9768 14.016L19.9704 14.2101C19.9625 14.4343 19.9525 14.6555 19.94 14.9222C19.8908 15.9864 19.7216 16.7123 19.475 17.3498C19.2208 18.0089 18.8766 18.5657 18.3215 19.1215C17.7657 19.6765 17.2065 20.0199 16.5499 20.2749C15.9124 20.5215 15.1864 20.6899 14.1223 20.7399C13.8556 20.7518 13.6344 20.7614 13.4102 20.7693L13.2161 20.7756C12.7233 20.7902 12.1529 20.7969 11.0275 20.799L10.2818 20.7998C10.1907 20.7999 10.0967 20.7999 9.99966 20.7999L9.71755 20.7998L8.97183 20.7992C7.84639 20.7973 7.27599 20.7914 6.78322 20.7767L6.58913 20.7703C6.36488 20.7624 6.14367 20.7524 5.877 20.7399C4.81279 20.6907 4.08777 20.5215 3.44942 20.2749C2.79106 20.0207 2.23354 19.6765 1.67769 19.1215C1.12184 18.5657 0.779327 18.0064 0.524318 17.3498C0.27681 16.7123 0.109304 15.9864 0.0593022 14.9222C0.0474218 14.6555 0.0377313 14.4343 0.0298811 14.2101L0.0235909 14.016C0.00896039 13.5232 0.00229025 12.9529 0.000130181 11.8274L0 9.77175C0.00186006 8.64631 0.00781028 8.07591 0.0224808 7.58315L0.028831 7.38906C0.0368013 7.1648 0.0468018 6.9436 0.0593022 6.67693C0.108464 5.61189 0.27681 4.88687 0.524318 4.24934C0.778487 3.59098 1.12184 3.03346 1.67769 2.47761C2.23354 1.92177 2.7919 1.57925 3.44942 1.32424C4.08694 1.07674 4.81196 0.909231 5.877 0.859229C6.14367 0.847349 6.36488 0.837658 6.58913 0.829808L6.78322 0.823518C7.27599 0.808887 7.84639 0.802217 8.97183 0.800057L11.0275 0.799927ZM9.99966 5.7994C7.23665 5.7994 4.99947 8.039 4.99947 10.7996C4.99947 13.5626 7.23908 15.7998 9.99966 15.7998C12.7627 15.7998 14.9998 13.5601 14.9998 10.7996C14.9998 8.03657 12.7602 5.7994 9.99966 5.7994ZM9.99966 7.79947C11.6566 7.79947 12.9998 9.14213 12.9998 10.7996C12.9998 12.4565 11.657 13.7997 9.99966 13.7997C8.34271 13.7997 6.99954 12.4569 6.99954 10.7996C6.99954 9.14263 8.34221 7.79947 9.99966 7.79947ZM15.2498 4.29935C14.5605 4.29935 13.9998 4.85927 13.9998 5.54854C13.9998 6.2378 14.5597 6.79859 15.2498 6.79859C15.9391 6.79859 16.4999 6.23867 16.4999 5.54854C16.4999 4.85927 15.9382 4.29848 15.2498 4.29935Z" fill="#901D63"/>
</svg>
